<svg xmlns="http://www.w3.org/2000/svg" viewBox="0 0 128 128" role="img" aria-label="Task Manager favicon">
  <defs>
    <linearGradient id="paper" x1="0" y1="0" x2="0" y2="1">
      <stop offset="0" stop-color="#f7f9fc" />
      <stop offset="1" stop-color="#eef2f7" />
    </linearGradient>
  </defs>

  <rect width="128" height="128" rx="24" fill="#f3f5fb" />
  <rect x="28" y="16" width="72" height="96" rx="12" fill="#2f3a57" />
  <rect x="36" y="24" width="56" height="80" rx="8" fill="url(#paper)" />
  <rect x="50" y="8" width="28" height="20" rx="6" fill="#0b8fff" />

  <path d="M46 48l6 6 10-12" fill="none" stroke="#4a5877" stroke-width="7" stroke-linecap="round" stroke-linejoin="round" />
  <path d="M46 68l6 6 10-12" fill="none" stroke="#4a5877" stroke-width="7" stroke-linecap="round" stroke-linejoin="round" />
  <path d="M46 88l6 6 10-12" fill="none" stroke="#4a5877" stroke-width="7" stroke-linecap="round" stroke-linejoin="round" />

  <rect x="72" y="46" width="20" height="7" rx="3.5" fill="#4a5877" />
  <rect x="72" y="66" width="20" height="7" rx="3.5" fill="#4a5877" />
  <rect x="72" y="86" width="20" height="7" rx="3.5" fill="#4a5877" />

  <circle cx="96" cy="100" r="22" fill="#0b8fff" />
  <path d="M96 86v16l10 6" fill="none" stroke="#ffffff" stroke-width="7" stroke-linecap="round" stroke-linejoin="round" />
</svg>